# xmcd CD database file
#
# Track frame offsets:
#	150
#	675
#	22485
#	44578
#	66784
#	90974
#	113504
#	136230
#	159630
#	182475
#	204910
#	227283
#	249768
#	263445
#
# Disc length: 3525 seconds
#
# Revision: 1
# Processed by: cddbd v1.5.2PL0 Copyright (c) Steve Scherf et al.
# Submitted via: CDex 1.51
#
DISCID=a30dc30e
DTITLE=Smedberg, Åke - Blod av mitt blod [CD 05 av 05]
DYEAR=2005
DGENRE=Ljudbok
TTITLE0=Blod av mitt blod 05.01
TTITLE1=Blod av mitt blod 05.02
TTITLE2=Blod av mitt blod 05.03
TTITLE3=Blod av mitt blod 05.04
TTITLE4=Blod av mitt blod 05.05
TTITLE5=Blod av mitt blod 05.06
TTITLE6=Blod av mitt blod 05.07
TTITLE7=Blod av mitt blod 05.08
TTITLE8=Blod av mitt blod 05.09
TTITLE9=Blod av mitt blod 05.10
TTITLE10=Blod av mitt blod 05.11
TTITLE11=Blod av mitt blod 05.12
TTITLE12=Blod av mitt blod 05.13
TTITLE13=Blod av mitt blod 05.14
EXTD=YEAR: 2005
EXTT0=
EXTT1=
EXTT2=
EXTT3=
EXTT4=
EXTT5=
EXTT6=
EXTT7=
EXTT8=
EXTT9=
EXTT10=
EXTT11=
EXTT12=
EXTT13=
PLAYORDER=
